<?xml version="1.0" encoding="utf-8"?>
<!-- Generator: Adobe Illustrator 16.0.0, SVG Export Plug-In . SVG Version: 6.00 Build 0)  -->
<!DOCTYPE svg PUBLIC "-//W3C//DTD SVG 1.1//EN" "http://www.w3.org/Graphics/SVG/1.1/DTD/svg11.dtd">
<svg version="1.1" id="Layer_1" focusable="false" xmlns="http://www.w3.org/2000/svg" xmlns:xlink="http://www.w3.org/1999/xlink"
	 x="0px" y="0px" width="2212px" height="1560px" viewBox="0 0 2212 1560" enable-background="new 0 0 2212 1560"
	 xml:space="preserve">
<g>
	<g>
		<g>
			<path fill="#FF0000" d="M1369.551,647.612c-6.301-23.625-24.938-42.265-48.65-48.649C1278.026,587.5,1106,587.5,1106,587.5
				s-171.938,0-214.899,11.463c-23.625,6.3-42.263,24.938-48.65,48.649C830.989,690.487,830.989,780,830.989,780
				s0,89.513,11.461,132.388c6.301,23.625,24.938,42.264,48.65,48.649C934.063,972.5,1106,972.5,1106,972.5
				s172.024,0,214.899-11.463c23.625-6.3,42.262-24.938,48.65-48.649C1381.012,869.513,1381.012,780,1381.012,780
				S1381.012,690.487,1369.551,647.612z"/>
		</g>
	</g>
	<g>
		
			<image overflow="visible" opacity="0.75" width="433" height="313" xlink:href="A40BE083.png"  transform="matrix(1 0 0 1 896.5002 630.5)">
		</image>
		<g>
			<path fill="#FFFFFF" d="M965.302,759.899c22.173,0,40.198-18.027,40.198-40.199c0-22.173-18.025-40.199-40.198-40.199
				c-22.172,0-40.199,18.026-40.199,40.199C925.102,741.872,943.13,759.899,965.302,759.899z M1246.698,759.899
				c22.174,0,40.201-18.027,40.201-40.199c0-22.173-18.027-40.199-40.201-40.199c-22.172,0-40.199,18.026-40.199,40.199
				C1206.498,741.872,1224.526,759.899,1246.698,759.899z M1266.799,779.999H1226.6c-11.057,0-21.043,4.46-28.328,11.683
				c25.313,13.885,43.277,38.945,47.172,68.719h41.455c11.117,0,20.1-8.982,20.1-20.102v-20.1
				C1306.998,798.027,1288.971,779.999,1266.799,779.999z M1106,779.999c38.881,0,70.35-31.469,70.35-70.35
				c0-38.88-31.469-70.351-70.35-70.351c-38.882,0-70.351,31.471-70.351,70.351C1035.651,748.53,1067.118,779.999,1106,779.999z
				 M1154.24,800.1h-5.215c-13.063,6.281-27.574,10.051-43.024,10.051c-15.451,0-29.897-3.77-43.025-10.051h-5.214
				c-39.947,0-72.358,32.41-72.358,72.359v18.09c0,16.646,13.505,30.15,30.149,30.15h180.896c16.646,0,30.15-13.506,30.15-30.15
				v-18.09C1226.6,832.51,1194.188,800.1,1154.24,800.1z M1013.73,791.682c-7.286-7.223-17.272-11.683-28.328-11.683h-40.2
				c-22.172,0-40.199,18.028-40.199,40.2v20.1c0,11.117,8.982,20.101,20.102,20.101h41.393
				C970.45,830.627,988.416,805.564,1013.73,791.682z"/>
		</g>
	</g>
</g>
</svg>
